
<svg
  viewBox="0 0 250 250"
  fill="#8B8B8B"
  xmlns="http://www.w3.org/2000/svg"
>
  <g>
    <path
      d="M233,21.812H9c-4.971,0-9,4.029-9,9v180.375c0,4.971,4.029,9,9,9h224c4.971,0,9-4.029,9-9V30.812
		C242,25.842,237.971,21.812,233,21.812z M224,39.812v41.042H18V39.812H224z M18,202.188V98.854h206v103.333H18z"
    />
    <circle cx="42.583" cy="60.938" r="10.417" />
    <circle cx="74.583" cy="60.938" r="10.417" />
    <circle cx="106.583" cy="60.938" r="10.417" />
    <path
      d="M201,121H42.583c-4.971,0-9,4.029-9,9s4.029,9,9,9H201c4.971,0,9-4.029,9-9S205.971,121,201,121z"
    />
    <path
      d="M201,151.812H42.583c-4.971,0-9,4.029-9,9s4.029,9,9,9H201c4.971,0,9-4.029,9-9S205.971,151.812,201,151.812z"
    />
  </g>
  <g></g>
  <g></g>
  <g></g>
  <g></g>
  <g></g>
  <g></g>
  <g></g>
  <g></g>
  <g></g>
  <g></g>
  <g></g>
  <g></g>
  <g></g>
  <g></g>
  <g></g>
</svg>
